# xmcd CD database file
#
# Track frame offsets:
#	183
#	12543
#	27938
#	38640
#	48368
#	65553
#	79498
#	95050
#	106555
#	117433
#	130773
#	145905
#	159268
#	169818
#
# Disc length: 2463 seconds
#
# Revision: 0
# Processed by: cddbd v1.4PL0 Copyright (c) Steve Scherf et al.
# Submitted via: CDex 1.40Release
#
DISCID=b7099d0e
DTITLE=Kenny Rogers - Country Star Collection
DYEAR=1900
DGENRE=Country
TTITLE0=Reuben James
TTITLE1=My Washington Woman
TTITLE2=She Even Woke Me Up To Say Goodbye
TTITLE3=Once Again She's Alone
TTITLE4=Something's Burning
TTITLE5=Sunshine
TTITLE6=Tulsa Turnaround
TTITLE7=Poem For A Little Lady
TTITLE8=Always Leaving, Always Gone
TTITLE9=Shine On Ruby Mountain
TTITLE10=For The Good Times
TTITLE11=A Stranger In My Place
TTITLE12=We All Got To Help Each Other
TTITLE13=Heed The Call
EXTD=ID3G: 2
EXTT0=
EXTT1=
EXTT2=
EXTT3=
EXTT4=
EXTT5=
EXTT6=
EXTT7=
EXTT8=
EXTT9=
EXTT10=
EXTT11=
EXTT12=
EXTT13=
PLAYORDER=
